# xmcd
#
# Track frame offsets:
#	150
#	15322
#	34466
#	55840
#	72402
#	89708
#	109070
#	125990
#	148971
#	162721
#	180158
#
# Disc length: 2657 seconds
#
# Revision: 0
# Processed by: cddbd v1.5.2PL0 Copyright (c) Steve Scherf et al.
# Submitted via: EZCDAudioConverter 1.3.4.1
#
DISCID=a50a5f0b
DTITLE=Carol Riddick - Love Phases
DYEAR=2015
DGENRE=Soul
TTITLE0=Love Like I've Never Been Hurt Before
TTITLE1=Stop, Go Back
TTITLE2=Beautiful
TTITLE3=Jump In
TTITLE4=Like This
TTITLE5=Stay
TTITLE6=The Way You say My Name
TTITLE7=Once You Let Go
TTITLE8=Pushing Away
TTITLE9=Never Too Late
TTITLE10=Fairytale 
EXTD=
EXTT0=
EXTT1=
EXTT2=
EXTT3=
EXTT4=
EXTT5=
EXTT6=
EXTT7=
EXTT8=
EXTT9=
EXTT10=
PLAYORDER=
